<?xml version="1.0" standalone="no"?><!DOCTYPE svg PUBLIC "-//W3C//DTD SVG 1.1//EN" "http://www.w3.org/Graphics/SVG/1.1/DTD/svg11.dtd"><svg t="1723873480436" class="icon" viewBox="0 0 1024 1024" version="1.1" xmlns="http://www.w3.org/2000/svg" p-id="12292" xmlns:xlink="http://www.w3.org/1999/xlink" width="200" height="200"><path d="M1013.344817 637.234975c9.966453 12.459981-9.974114 42.367001-32.400549 47.350227-157.008023 54.826983-279.1258 351.392161-520.863995 336.442481-9.970283-2.493528-27.413491-2.493528-29.90702-17.447038l-17.447038-77.257247 545.787789-341.425708 54.830813 52.337285zM313.042533 231.015832l-219.307931 179.434457c-14.95351 12.459981-17.447038 32.396718-9.970283 47.350228l14.95351 27.413491c2.489698 9.970283 2.489698 19.936736-2.489698 27.413492L13.983827 652.188485c-9.970283 14.95351-7.476755 34.890246 7.476755 47.350227l134.577758 122.117777c14.95351 12.459981 34.890246 19.936736 54.826983 17.447039l161.991249-19.936737c7.476755 0 17.443208 4.983227 17.443208 14.94968l9.970284 42.370831 523.357524-326.472197-24.919963-22.426435c-4.990887-7.476755-2.489698-37.383775-12.463812-54.826982-29.91085-47.350228-122.117777-204.358251-321.492801-284.105197-14.95351-27.413491-67.286964-112.147494-161.99125-184.421515-7.476755-7.476755-22.430265-4.983227-24.919963 7.476755-9.970283 47.342567-32.400548 139.553324-64.797266 219.304101zM250.738795 517.610726c0 19.936736-14.95351 34.890246-34.890246 34.890246s-34.890246-14.95351-34.890246-34.890246 14.95351-34.890246 34.890246-34.890246 34.890246 14.95351 34.890246 34.890246zM360.392761 883.956397c7.476755-2.489698 17.447038 0 22.430264 4.987056 0 2.489698 2.489698 4.983227 2.489699 7.476755l4.983226 29.90702 12.459982 64.793436c2.489698 12.463812-4.983227 24.923793-17.447039 27.413491l-29.907019 4.987057c-9.970283 2.489698-19.936736-4.987057-19.936737-17.447038l4.983227-89.717229c0.007661-14.95351 7.484416-27.413491 19.944397-32.400548z" fill="#2c2c2c" p-id="12293"></path></svg>