<?xml version="1.0" standalone="no"?><!DOCTYPE svg PUBLIC "-//W3C//DTD SVG 1.1//EN" "http://www.w3.org/Graphics/SVG/1.1/DTD/svg11.dtd"><svg t="1724038138211" class="icon" viewBox="0 0 1024 1024" version="1.1" xmlns="http://www.w3.org/2000/svg" p-id="9975" xmlns:xlink="http://www.w3.org/1999/xlink" width="200" height="200"><path d="M389.352727 32.861091c-98.583273 17.454545-116.503273 53.899636-116.503272 121.344V242.967273h233.239272v29.696h-320.698182c-67.863273 0-127.208727 40.773818-145.780363 118.225454-21.410909 88.808727-22.248727 144.244364 0 236.962909 16.616727 68.933818 56.087273 118.225455 123.950545 118.225455h80.058182v-106.449455c0-77.032727 66.56-144.849455 145.733818-144.849454h233.053091c64.791273 0 116.503273-53.480727 116.503273-118.504727V153.972364c0-63.301818-53.248-110.638545-116.503273-121.297455C544.256 19.781818 459.403636 20.433455 389.352727 32.861091z m-14.615272 61.998545c24.017455 0 43.845818 20.014545 43.845818 44.497455a44.078545 44.078545 0 0 1-43.845818 44.264727 44.078545 44.078545 0 0 1-43.845819-44.264727 44.264727 44.264727 0 0 1 43.845819-44.544z" fill="#3572A4" p-id="9976"></path><path d="M866.304 272.663273c67.863273 0 99.700364 50.827636 116.503273 118.225454 23.365818 93.602909 24.436364 163.84 0 236.962909-23.552 70.888727-48.64 118.225455-116.503273 118.225455h-349.556364v29.696h232.820364v88.808727c0 67.211636-57.809455 101.469091-116.503273 118.458182-88.343273 25.553455-159.278545 21.597091-233.006545 0-61.533091-18.106182-116.503273-55.202909-116.503273-118.458182v-222.114909c0-63.906909 52.782545-118.458182 116.503273-118.458182h233.006545c77.684364 0 145.780364-67.630545 145.780364-147.921454V272.663273z m-218.624 562.269091a44.404364 44.404364 0 0 0 0 88.808727c24.203636 0 43.892364-19.874909 43.892364-44.544a44.078545 44.078545 0 0 0-43.892364-44.264727z" fill="#FFCC3C" p-id="9977"></path></svg>