<?xml version="1.0" standalone="no"?><!DOCTYPE svg PUBLIC "-//W3C//DTD SVG 1.1//EN" "http://www.w3.org/Graphics/SVG/1.1/DTD/svg11.dtd"><svg t="1723874420787" class="icon" viewBox="0 0 1170 1024" version="1.1" xmlns="http://www.w3.org/2000/svg" p-id="15267" xmlns:xlink="http://www.w3.org/1999/xlink" width="228.515625" height="200"><path d="M343.771429 512c-14.628571 0-36.571429 7.314286-43.885715 29.257143-7.314286 14.628571-7.314286 36.571429 0 51.2 7.314286 14.628571 29.257143 29.257143 43.885715 29.257143 29.257143 0 58.514286-21.942857 58.514285-58.514286 0-29.257143-21.942857-51.2-58.514285-51.2zM563.2 512c-14.628571 0-36.571429 7.314286-43.885714 29.257143-7.314286 14.628571-7.314286 36.571429 0 51.2 7.314286 14.628571 29.257143 29.257143 43.885714 29.257143 29.257143 0 58.514286-21.942857 58.514286-58.514286 0-29.257143-21.942857-51.2-58.514286-51.2zM782.628571 512c-21.942857 0-36.571429 7.314286-43.885714 29.257143-7.314286 14.628571-7.314286 36.571429 0 51.2 7.314286 14.628571 29.257143 29.257143 43.885714 29.257143 29.257143 0 58.514286-21.942857 58.514286-58.514286 0-29.257143-21.942857-51.2-58.514286-51.2z" fill="#FF6102" p-id="15268"></path><path d="M1038.628571 409.6c-29.257143-21.942857-58.514286-43.885714-87.771428-51.2C921.6 175.542857 760.685714 43.885714 563.2 43.885714 373.028571 43.885714 212.114286 175.542857 175.542857 351.085714 73.142857 380.342857 0 468.114286 0 570.514286c0 124.342857 109.714286 226.742857 241.371429 226.742857h36.571428l-95.085714 117.028571c-21.942857 21.942857-14.628571 58.514286 14.628571 73.142857 21.942857 14.628571 58.514286 14.628571 80.457143-7.314285l146.285714-182.857143H512v175.542857c0 29.257143 21.942857 51.2 51.2 51.2 29.257143 0 58.514286-21.942857 58.514286-51.2v-175.542857h95.085714l146.285714 182.857143c21.942857 21.942857 51.2 29.257143 80.457143 7.314285 21.942857-14.628571 29.257143-51.2 14.628572-73.142857l-95.085715-117.028571h21.942857c36.571429 0 73.142857-7.314286 102.4-21.942857h7.314286c87.771429-36.571429 146.285714-124.342857 138.971429-212.114286-14.628571-65.828571-43.885714-117.028571-95.085715-153.6zM563.2 146.285714c124.342857 0 234.057143 80.457143 270.628571 197.485715H292.571429C329.142857 234.057143 438.857143 146.285714 563.2 146.285714z m307.2 533.942857H234.057143c-65.828571 0-117.028571-51.2-117.028572-109.714285 0-29.257143 14.628571-51.2 29.257143-73.142857 21.942857-21.942857 43.885714-29.257143 80.457143-29.257143h694.857143c36.571429 14.628571 65.828571 58.514286 65.828571 102.4 0 65.828571-51.2 109.714286-117.028571 109.714285z" fill="#FF6102" p-id="15269"></path></svg>