<?xml version="1.0" standalone="no"?><!DOCTYPE svg PUBLIC "-//W3C//DTD SVG 1.1//EN" "http://www.w3.org/Graphics/SVG/1.1/DTD/svg11.dtd"><svg t="1724039157513" class="icon" viewBox="0 0 1024 1024" version="1.1" xmlns="http://www.w3.org/2000/svg" p-id="3198" xmlns:xlink="http://www.w3.org/1999/xlink" width="200" height="200"><path d="M25.265327 513.348683l485.376 485.376 485.390985-485.376-485.38599-485.390985L25.265327 513.348683z m485.376 509.502439a9.950283 9.950283 0 0 1-7.058107-2.932137l-499.512196-499.512195a9.990244 9.990244 0 0 1 0-14.126205l499.512196-499.512195a9.990244 9.990244 0 0 1 14.126204 0l499.512196 499.512195c3.906185 3.896195 3.906185 10.225015 0 14.126205l-499.512196 499.512195a9.940293 9.940293 0 0 1-7.063102 2.927142z" fill="#00C0AC" p-id="3199"></path><path d="M56.92441 503.358439h297.689288l106.71079-185.299044-404.405073 185.294049z m303.463649 19.980488H11.129132a9.990244 9.990244 0 0 1-4.155942-19.076371l474.446673-217.387707a10.000234 10.000234 0 0 1 11.548722 2.357697c2.927141 3.206868 3.441639 7.947239 1.268761 11.713561l-125.192741 217.387708a9.985249 9.985249 0 0 1-8.656546 5.000117zM665.365229 523.338927l-106.71079 185.284058 404.405073-185.289053h-297.694283z m-130.967102 217.377717a9.990244 9.990244 0 0 1-8.656547-14.975376l125.192742-217.382712a9.985249 9.985249 0 0 1 8.656546-5.005112h349.248937a9.990244 9.990244 0 1 1 4.160936 19.071376l-474.436682 217.387707a9.925307 9.925307 0 0 1-4.165932 0.904117z" fill="#00C0AC" p-id="3200"></path><path d="M89.772332 271.559805l179.090107 662.657873 662.662868-179.085112-179.090107-662.667864L89.772332 271.559805zM261.819317 956.465951a9.990244 9.990244 0 0 1-9.640585-7.38279L67.883707 267.129132a9.990244 9.990244 0 0 1 7.033132-12.253034L756.860878 70.571083a9.985249 9.985249 0 0 1 12.248039 7.043122L953.418927 759.558244a9.980254 9.980254 0 0 1-7.033132 12.248039L264.431766 956.116293c-0.869151 0.234771-1.748293 0.349659-2.612449 0.349658z" fill="#00C0AC" p-id="3201"></path><path d="M193.386146 341.081912c-1.688351 0-3.396683-0.42958-4.965151-1.333697L72.549151 273.18322a9.990244 9.990244 0 1 1 9.950283-17.328079l115.871844 66.569991a9.985249 9.985249 0 0 1 3.6864 13.636683 9.975259 9.975259 0 0 1-8.671532 5.020097M942.624468 771.50158c-1.688351 0-3.396683-0.42958-4.965151-1.328702l-114.917776-66.015532a9.995239 9.995239 0 0 1 9.950283-17.328078l114.917776 66.020527a9.990244 9.990244 0 0 1-4.985132 18.651785M826.427941 340.487493a9.985249 9.985249 0 0 1-5.000117-18.646791l115.746966-66.78478a9.990244 9.990244 0 0 1 9.985249 17.308098l-115.746966 66.779785a9.940293 9.940293 0 0 1-4.985132 1.343688M77.998829 772.315785a9.985249 9.985249 0 0 1-5.000117-18.64679l114.792898-66.235317a9.995239 9.995239 0 0 1 9.985249 17.308098l-114.792898 66.235317a9.940293 9.940293 0 0 1-4.985132 1.338692M510.866107 157.785912h-0.01998a9.990244 9.990244 0 0 1-9.970264-10.010224l0.289717-133.634498a9.990244 9.990244 0 0 1 9.990244-9.965268h0.019981a9.990244 9.990244 0 0 1 9.970263 10.010224l-0.289717 133.634498a9.990244 9.990244 0 0 1-9.990244 9.965268M509.002927 1021.857093h-0.019981a9.990244 9.990244 0 0 1-9.970263-10.010225l0.284722-132.53557a9.990244 9.990244 0 0 1 9.990244-9.970264h0.024975a9.990244 9.990244 0 0 1 9.965269 10.01522l-0.284722 132.53557a9.990244 9.990244 0 0 1-9.990244 9.965269" fill="#00C0AC" p-id="3202"></path><path d="M90.811317 756.93081l663.427122 176.247883 176.247883-663.422127L267.0592 93.508683 90.811317 756.93081z m670.52519 198.46119c-0.854166 0-1.713327-0.109893-2.572487-0.334673L76.025756 773.679454a9.990244 9.990244 0 0 1-7.093073-12.223064L250.320546 78.723122a9.990244 9.990244 0 0 1 12.218069-7.088078l682.733268 181.372878a9.995239 9.995239 0 0 1 7.093073 12.223063l-181.377873 682.733269a9.990244 9.990244 0 0 1-9.645581 7.427746z" fill="#00C0AC" p-id="3203"></path><path d="M291.590244 115.876839l149.394107 257.488546 213.816195-0.689326-363.210302-256.79922zM435.239961 393.365854a9.990244 9.990244 0 0 1-8.641561-4.975142L251.329561 86.300722A10.000234 10.000234 0 0 1 265.740488 73.128585l426.123863 301.280781a9.995239 9.995239 0 0 1-5.74439 18.152273l-250.845034 0.804215h-0.034966zM365.832741 652.867434l363.210303 256.804215-149.394107-257.488547-213.816196 0.684332z m394.829425 301.385678c-2.008039 0-4.026068-0.60441-5.764371-1.83321l-426.123863-301.285775a9.985249 9.985249 0 0 1 5.7344-18.142283l250.855024-0.80921h0.029971a9.990244 9.990244 0 0 1 8.641561 4.975142l175.268839 302.08999a9.990244 9.990244 0 0 1-8.641561 15.005346z" fill="#00C0AC" p-id="3204"></path><path d="M91.665483 268.288l173.930146 664.041522 664.031532-173.930146L755.70201 94.357854 91.665483 268.288zM258.462595 954.517854a9.980254 9.980254 0 0 1-9.665561-7.457717L69.806829 263.687493a9.990244 9.990244 0 0 1 7.133034-12.193093L760.307512 72.504195a9.995239 9.995239 0 0 1 12.193093 7.128039l178.990205 683.367649a9.990244 9.990244 0 0 1-7.128039 12.188097L260.995122 954.188176a9.920312 9.920312 0 0 1-2.527532 0.329678z" fill="#00C0AC" p-id="3205"></path><path d="M598.050966 383.695298l106.066419 185.658692 44.22681-442.617756-150.293229 256.959064z m112.889756 227.74759a9.990244 9.990244 0 0 1-8.666537-5.035083L577.835707 388.590517a10.005229 10.005229 0 0 1 0.049952-9.990244l176.327804-301.480585a9.985249 9.985249 0 1 1 18.561874 6.039102l-51.884332 519.292878a9.995239 9.995239 0 0 1-9.945288 8.99122zM317.8496 456.194498l-44.22681 442.617756 150.29323-256.959064-106.06642-185.658692zM259.131941 953.368976a9.990244 9.990244 0 0 1-9.945287-10.984274l51.889326-519.292878A9.995239 9.995239 0 0 1 319.687805 419.140683l124.438478 217.817288c1.768273 3.096976 1.748293 6.908254-0.049951 9.990244l-176.327805 301.480585a9.995239 9.995239 0 0 1-8.621581 4.945171z" fill="#00C0AC" p-id="3206"></path></svg>