<?xml version="1.0" standalone="no"?><!DOCTYPE svg PUBLIC "-//W3C//DTD SVG 1.1//EN" "http://www.w3.org/Graphics/SVG/1.1/DTD/svg11.dtd"><svg t="1724038023765" class="icon" viewBox="0 0 1024 1024" version="1.1" xmlns="http://www.w3.org/2000/svg" p-id="4630" xmlns:xlink="http://www.w3.org/1999/xlink" width="200" height="200"><path d="M992 508.576c-0.928 87.552-23.904 173.792-67.2 252.416l-4.32 7.936c-5.344 9.76-14.72 17.312-26.208 21.088a1200.832 1200.832 0 0 1-381.6 63.328A1208.352 1208.352 0 0 1 142.4 794.112l-11.616-3.744a45.504 45.504 0 0 1-26.976-22.528C55.936 672.096 32 585.568 32 508.256c0-75.68 22.912-160.992 68.736-256l3.936-8.544c4.736-9.632 13.376-17.344 24.192-21.6C233.248 180.704 361.184 160 512.672 160c148.544 0 273.984 19.904 376.32 59.744l7.2 2.816c10.24 4.064 18.496 11.2 23.328 20.224C967.84 332.768 992 421.376 992 508.576z" fill="#1740DC" p-id="4631"></path><path d="M498.656 293.344c22.08 0 40 17.92 40 40l-0.16 3.584c4.8 0.576 9.6 1.248 14.4 1.952 89.504 14.816 158.656 53.696 197.248 113.696l-0.768-1.216a11.52 11.52 0 0 1 0.576 0.864l0.192 0.32v0.032a11.488 11.488 0 0 1-15.136 15.904l-1.28-0.576-1.088-0.608c-49.344-30.4-108.256-46.848-168.704-47.136a20.96 20.96 0 0 0-14.048 4.736 15.84 15.84 0 0 0-5.856 12.064v266.24c0 9.28-8.64 16.8-19.296 16.8l-57.92-1.088c-10.656 0-19.296-7.52-19.296-16.8V456.64a16.224 16.224 0 0 0-7.936-13.664 21.696 21.696 0 0 0-17.376-2.4c-28.384 8.32-55.808 18.912-81.92 31.68a13.312 13.312 0 0 1-9.088 0.992 11.616 11.616 0 0 1-7.136-4.928l-50.208-77.504a3.36 3.36 0 0 1-0.48-0.736c-3.008-4.992-0.928-11.136 4.736-13.888a10.56 10.56 0 0 1 3.552-1.152 480.192 480.192 0 0 1 163.712-40.544 40 40 0 0 1 39.968-41.152h13.312z" fill="#FFFFFF" p-id="4632"></path></svg>