<?xml version="1.0" standalone="no"?><!DOCTYPE svg PUBLIC "-//W3C//DTD SVG 1.1//EN" "http://www.w3.org/Graphics/SVG/1.1/DTD/svg11.dtd"><svg t="1723888578081" class="icon" viewBox="0 0 1024 1024" version="1.1" xmlns="http://www.w3.org/2000/svg" p-id="26494" xmlns:xlink="http://www.w3.org/1999/xlink" width="200" height="200"><path d="M512 0a512 512 0 1 0 512 512A512 512 0 0 0 512 0z m313.469388 365.714286h-80.770612A34.063673 34.063673 0 0 0 710.530612 399.882449V606.040816c0 109.818776-48.065306 155.480816-60.081632 165.198368a32.182857 32.182857 0 0 0-5.22449 5.433469C559.960816 886.909388 355.265306 825.469388 355.265306 825.469388c-129.253878-35.94449-169.691429-170.631837-182.334694-250.77551a34.272653 34.272653 0 0 1 47.542857-36.675919c216.398367 95.294694 329.769796 38.556735 363.83347 14.837551a33.541224 33.541224 0 0 0 13.688163-20.897959L616.489796 438.857143l37.198367-232.489796a34.168163 34.168163 0 0 1 56.006531-20.897959l58.305306 49.946122a34.690612 34.690612 0 0 1 8.359184 10.44898l34.795102 69.799183C822.543673 338.964898 850.860408 365.714286 825.469388 365.714286z" fill="#2878F1" p-id="26495"></path></svg>