<?xml version="1.0" standalone="no"?><!DOCTYPE svg PUBLIC "-//W3C//DTD SVG 1.1//EN" "http://www.w3.org/Graphics/SVG/1.1/DTD/svg11.dtd"><svg t="1723874520855" class="icon" viewBox="0 0 1026 1024" version="1.1" xmlns="http://www.w3.org/2000/svg" p-id="16470" xmlns:xlink="http://www.w3.org/1999/xlink" width="200.390625" height="200"><path d="M727.786933 224.718204c0 2.553616 0 2.553616 0 0 0 2.553616 0 2.553616 0 0zM260.475212 1024h753.316708c10.214464 0 10.214464-2.553616 10.214464-10.214464V2.553616H250.260748v1021.446384h10.214464z m232.379052-155.770574h-58.733167c-5.107232 0-7.660848-2.553616-7.660848-7.660847v-61.286783c0-5.107232 2.553616-7.660848 7.660848-7.660848h117.466334c5.107232 0 7.660848 2.553616 7.660848 7.660848v61.286783c0 5.107232-2.553616 7.660848-7.660848 7.660847h-58.733167z m140.448878-620.528678h-25.536159c0 7.660848 5.107232 10.214464 10.214463 7.660848 5.107232-5.107232 12.76808-2.553616 17.875312-2.553616-2.553616 10.214464-7.660848 15.321696-20.428928 15.321696-15.321696 0-20.428928-5.107232-25.536159-22.982544-2.553616 7.660848 0 12.76808-2.553616 20.428928-15.321696 5.107232-15.321696 2.553616-15.321696-10.214464v-12.76808c0-2.553616 0-7.660848-5.107232-7.660848s-7.660848 2.553616-7.660848 7.660848v17.875312c0 7.660848 0 10.214464-7.660848 10.214464s-7.660848-2.553616-7.660847-7.660848V234.932668c0-10.214464 5.107232-12.76808 12.768079-7.660848 2.553616 2.553616 5.107232 2.553616 10.214464 0 10.214464-5.107232 20.428928 0 22.982544 12.76808 0 2.553616 0 2.553616 2.553616 7.660848 0-10.214464 2.553616-15.321696 10.214464-20.428928 5.107232-5.107232 12.76808-5.107232 17.875311-5.107231 10.214464 0 20.428928 10.214464 17.875312 20.428927 0 5.107232 0 5.107232-5.107232 5.107232z m10.214464 12.76808c-2.553616-2.553616-5.107232-5.107232-2.553616-7.660848 5.107232-2.553616 10.214464-2.553616 12.76808 0 2.553616 0 2.553616 2.553616 5.107232 2.553616s5.107232 0 7.660848-2.553616c0-2.553616-2.553616-5.107232-5.107232-5.107232-5.107232 0-7.660848-2.553616-12.76808-2.553616-7.660848 0-10.214464-12.76808-2.553616-20.428928 10.214464-10.214464 30.643392-5.107232 35.750623 7.660848-2.553616 5.107232-7.660848 0-12.768079 5.107232 5.107232 2.553616 12.76808 2.553616 12.768079 12.76808 0 2.553616 2.553616 2.553616 5.107232 2.553616 5.107232 0 10.214464-2.553616 12.76808 5.107232 0 2.553616 5.107232 2.553616 7.660848 0l2.553616-2.553616c0-2.553616-2.553616-2.553616-5.107232-2.553616s-7.660848 0-10.214464-2.553616c-7.660848-2.553616-10.214464-5.107232-10.214464-12.76808s2.553616-12.76808 10.214464-12.76808c10.214464-2.553616 20.428928-5.107232 30.643392 5.107232v-2.553616c-2.553616-2.553616 0-5.107232 2.553616-5.107231 5.107232 0 10.214464-5.107232 12.768079 5.107231 2.553616 5.107232 2.553616 10.214464 5.107232 15.321696 5.107232-2.553616 2.553616-7.660848 5.107232-12.76808 0-5.107232 2.553616-7.660848 10.214464-7.660847 7.660848 0 7.660848 5.107232 7.660848 10.214463 0 2.553616 2.553616 7.660848 2.553616 12.76808 2.553616-5.107232 5.107232-10.214464 5.107232-15.321696 0-2.553616 2.553616-5.107232 7.660848-5.107232 10.214464 0 12.76808 0 7.660848 10.214464-2.553616 10.214464-7.660848 20.428928-10.214464 30.643392-2.553616 7.660848-7.660848 5.107232-12.76808 5.107232s-7.660848-2.553616-7.660848-7.660848c0-5.107232-2.553616-10.214464-2.553616-15.321696-5.107232 5.107232-5.107232 10.214464-5.107232 15.321696 0 5.107232-2.553616 7.660848-7.660848 7.660848-5.107232 0-10.214464 2.553616-12.768079-5.107232l-7.660848-30.643392c-2.553616 0-2.553616 2.553616-2.553616 2.553616-2.553616 5.107232-7.660848 0-12.76808 2.553616 10.214464 2.553616 15.321696 7.660848 12.76808 17.875312-2.553616 10.214464-10.214464 12.76808-17.875312 12.76808-12.76808 2.553616-20.428928-2.553616-28.089776-12.76808-2.553616 10.214464-10.214464 10.214464-17.875311 12.76808-2.553616-2.553616-10.214464-2.553616-15.321696-10.214464z m66.394015 270.683292c-7.660848-51.072319-22.982544-99.591022-40.857855-148.109726-2.553616-7.660848 0-10.214464 5.107232-12.76808 5.107232-2.553616 7.660848-2.553616 7.660847 2.553616 17.875312 48.518703 33.197007 97.037406 40.857856 148.109726v7.660848c0 7.660848-7.660848 5.107232-12.76808 5.107232v-2.553616z m104.698254 234.932668h-58.733167c-7.660848 0-10.214464 2.553616-10.214464 10.214464v125.127182c0 7.660848-2.553616 10.214464-10.214463 10.214464-7.660848 0-7.660848-2.553616-7.660848-7.660848v-63.840399-61.286783c0-7.660848-2.553616-10.214464-10.214464-10.214464h-58.733167c-7.660848 0-7.660848-2.553616-7.660848-7.660848 0-5.107232 0-10.214464 7.660848-10.214464H717.572469c5.107232 0 7.660848 0 7.660848-7.660848v-76.608478c0-7.660848-2.553616-7.660848-7.660848-7.660848h-40.857856c-5.107232 0-10.214464 0-7.660847-7.660848 0-5.107232 0-10.214464 7.660847-10.214464h120.019951c7.660848 0 7.660848 5.107232 7.660847 10.214464s0 7.660848-7.660847 7.660848h-45.965088c-5.107232 0-7.660848 0-7.660848 7.660848v74.054862c0 7.660848 2.553616 7.660848 7.660848 7.660848h58.733167c7.660848 0 7.660848 2.553616 7.660848 7.660848 5.107232 7.660848 5.107232 10.214464-2.553616 10.214464z m17.875312 74.054863V666.493766c0-7.660848 2.553616-7.660848 7.660848-7.660848 5.107232 0 7.660848 0 7.660848 7.660848v173.645885c0 7.660848-2.553616 7.660848-7.660848 7.660848-5.107232 0-7.660848 0-7.660848-7.660848z m84.269327 40.857855c0 15.321696-5.107232 22.982544-22.982544 25.53616-12.76808 2.553616-28.089776 0-40.857855 0-5.107232 0-7.660848-2.553616-7.660848-17.875312h40.857855c12.76808 0 15.321696-2.553616 15.321696-15.321696v-227.27182c0-5.107232-2.553616-10.214464 7.660848-10.214464 7.660848 0 10.214464 2.553616 10.214464 10.214464-2.553616 76.608479-2.553616 155.770574-2.553616 234.932668z m2.553616-280.897755h-255.361596c-5.107232 0-10.214464 0-10.214464-7.660848s2.553616-7.660848 10.214464-7.660848h74.054863c7.660848 0 10.214464-2.553616 10.214463-10.214464v-229.825436c0-10.214464 5.107232-12.76808 15.321696-10.214464 5.107232 2.553616 2.553616 5.107232 2.553616 7.660848V574.563591c0 7.660848 2.553616 10.214464 10.214464 10.214464h33.197007c10.214464 0 10.214464-2.553616 10.214464-10.214464v-229.825436c0-7.660848 0-10.214464 7.660848-10.214464s7.660848 2.553616 7.660848 10.214464v229.825436c0 7.660848 2.553616 10.214464 10.214464 10.214464h71.501247c5.107232 0 10.214464 0 10.214464 7.660848 2.553616 7.660848-2.553616 7.660848-7.660848 7.660848z m-63.840399-76.608479c7.660848-15.321696 12.76808-33.197007 17.875311-48.518703 10.214464-33.197007 17.875312-66.394015 22.982544-99.591023 0-2.553616 0-7.660848 5.107232-5.107232 5.107232 2.553616 12.76808 0 10.214464 7.660848-7.660848 48.518703-17.875312 91.930175-35.750624 135.341646-2.553616 5.107232-5.107232 12.76808-7.660848 17.875312-2.553616 2.553616 0 10.214464-7.660847 5.107232-2.553616-2.553616-7.660848-2.553616-5.107232-12.76808zM845.253267 234.932668c2.553616-10.214464 10.214464-12.76808 20.428928-12.768079 12.76808 0 20.428928 5.107232 25.536159 15.321695 2.553616-7.660848 0-15.321696 2.553616-22.982543 0-2.553616-2.553616-7.660848 2.553616-10.214464 15.321696 0 15.321696 0 15.321696 15.321696v17.875311c7.660848-12.76808 15.321696-17.875312 25.536159-12.76808-15.321696 12.76808-10.214464 25.53616 0 38.30424 2.553616 2.553616 2.553616 5.107232 2.553616 5.107232-12.76808 5.107232-22.982544 0-25.536159-15.321696-5.107232 5.107232 0 12.76808-5.107232 15.321696-2.553616 2.553616-10.214464 0-15.321696 2.553616-5.107232-2.553616 0-7.660848-5.107232-12.76808-7.660848 12.76808-22.982544 15.321696-33.197007 10.214464-12.76808-7.660848-15.321696-22.982544-10.214464-33.197008z m-5.107232 7.660848c0 5.107232 0 7.660848-5.107232 7.660848H819.717107c-2.553616 0-5.107232-2.553616-7.660848 0 0 2.553616 0 2.553616 2.553616 5.107232 0 2.553616 5.107232 2.553616 7.660848 0 5.107232-5.107232 12.76808-2.553616 17.875312-2.553616-2.553616 12.76808-15.321696 17.875312-28.089776 15.321696-12.76808-2.553616-17.875312-15.321696-15.321695-28.089776 2.553616-12.76808 10.214464-20.428928 22.982543-20.428927 10.214464 0 20.428928 10.214464 20.428928 22.982543z m-160.877806-76.608479c5.107232-12.76808 17.875312-17.875312 30.643392-12.768079 7.660848 2.553616 10.214464 7.660848 12.76808 15.321695 2.553616-5.107232 0-10.214464 2.553616-15.321695 7.660848 0 12.76808-5.107232 17.875311 2.553616 0 0 2.553616 0 2.553616-2.553616 10.214464-5.107232 12.76808-5.107232 12.76808 7.660847v5.107232c2.553616-2.553616 2.553616-5.107232 5.107232-7.660847 2.553616-5.107232 7.660848-10.214464 15.321696-7.660848 7.660848 2.553616 15.321696 0 22.982544 0 5.107232 0 5.107232 0 5.107231 5.107232v38.304239c0 12.76808-7.660848 17.875312-20.428927 17.875312s-20.428928-5.107232-22.982544-15.321696c5.107232 0 12.76808-2.553616 17.875312 2.553616 7.660848 5.107232 10.214464 0 10.214464-7.660848-15.321696 7.660848-28.089776 0-30.643392-15.321696v-10.214464c-10.214464 0-15.321696 2.553616-15.321696 12.76808-2.553616 2.553616-2.553616 2.553616-2.553616 5.107232 0 15.321696 0 15.321696-15.321695 15.321696-5.107232-2.553616 0-7.660848-2.553616-12.76808-7.660848 12.76808-20.428928 17.875312-33.197008 10.214464-12.76808-5.107232-17.875312-17.875312-12.76808-30.643392z m-43.411471-30.643391c5.107232 0 7.660848 0 7.660848 5.107232V155.770574c15.321696-5.107232 22.982544-2.553616 28.089776 5.107231 5.107232 10.214464 2.553616 30.643392-5.107232 35.750624-2.553616 2.553616-7.660848 5.107232-10.214464 2.553616-7.660848-2.553616-17.875312 0-25.53616-2.553616-5.107232 0-5.107232-2.553616-5.107232-5.107232V137.895262c2.553616-7.660848 7.660848-2.553616 10.214464-2.553616z m-81.715711 17.875312c5.107232 0 10.214464-5.107232 12.76808 2.553616 2.553616 2.553616 2.553616 0 5.107232 0 2.553616-2.553616 7.660848-5.107232 10.214464-2.553616 7.660848 5.107232 15.321696 2.553616 22.982544 0 10.214464-5.107232 17.875312 2.553616 17.875311 12.768079v22.982544c0 10.214464-2.553616 12.76808-12.768079 10.214464-2.553616 0-2.553616-2.553616-2.553616-5.107232v-17.875312c0-5.107232 0-7.660848-5.107232-7.660848s-5.107232 5.107232-5.107232 7.660848v15.321696c0 5.107232-2.553616 7.660848-7.660848 7.660848-5.107232 0-10.214464 0-7.660848-7.660848v-17.875312c0-2.553616-2.553616-5.107232-5.107232-5.107232s-5.107232 2.553616-5.107232 5.107232v20.428928c0 7.660848-5.107232 5.107232-7.660848 5.107232-5.107232 0-10.214464 2.553616-7.660848-5.107232v-17.875312-12.76808c-5.107232-5.107232-7.660848-10.214464-2.553616-10.214463z m-30.643391-2.553616c15.321696 0 25.53616 10.214464 25.536159 22.982543 0 15.321696-10.214464 25.53616-22.982543 25.53616-15.321696 0-22.982544-10.214464-22.982544-22.982544-2.553616-15.321696 7.660848-25.53616 20.428928-25.536159z m17.875312 94.48379v12.76808c0 10.214464-5.107232 12.76808-15.321696 10.214464-2.553616 0-2.553616-2.553616-2.553616-5.107232V227.27182c0-7.660848 5.107232-5.107232 7.660848-5.107231 5.107232 0 10.214464-2.553616 7.660848 5.107231 2.553616 5.107232 2.553616 10.214464 2.553616 17.875312z m-7.660848-28.089775c-5.107232 0-10.214464 0-10.214464-5.107232 0-7.660848 5.107232-7.660848 10.214464-7.660848s7.660848 0 7.660848 7.660848-5.107232 7.660848-7.660848 5.107232z m-58.733167-66.394015c15.321696 0 25.53616 10.214464 25.536159 22.982543 0 15.321696-10.214464 25.53616-22.982543 25.53616-15.321696 0-25.53616-10.214464-25.53616-22.982544 0-15.321696 7.660848-25.53616 22.982544-25.536159z m-35.750624-15.321696c5.107232 0 10.214464-2.553616 10.214464 5.107232v51.072319c0 7.660848-2.553616 10.214464-10.214464 10.214464-7.660848 0-7.660848-2.553616-7.660848-10.214464V143.002494c0-10.214464 2.553616-10.214464 7.660848-7.660848z m-7.660848 89.376558c0-7.660848 5.107232-5.107232 7.660848-5.107231 2.553616 0 7.660848-2.553616 7.660848 5.107231v20.428928c0 5.107232 0 7.660848 5.107232 7.660848s5.107232-2.553616 5.107232-7.660848v-17.875312c0-7.660848 2.553616-7.660848 7.660848-7.660847 5.107232 0 10.214464 0 10.214464 7.660847v17.875312c0 2.553616 0 5.107232 2.553616 7.660848 5.107232-2.553616 12.76808-5.107232 15.321695 2.553616 2.553616 2.553616 5.107232 2.553616 7.660848 2.553616l2.553616-2.553616c0-2.553616-2.553616-2.553616-5.107232-5.107232-5.107232 0-7.660848-2.553616-12.76808-2.553616-7.660848-5.107232-10.214464-15.321696-2.553616-22.982544 7.660848-7.660848 25.53616-7.660848 30.643392 0 2.553616 2.553616 5.107232 5.107232 5.107232 7.660848 0 2.553616-5.107232 2.553616-7.660848 2.553616-2.553616 0-5.107232 0-7.660848-2.553616-2.553616-2.553616-5.107232-2.553616-5.107232-2.553616l-2.553616 2.553616c0 2.553616 5.107232 2.553616 5.107232 2.553616 2.553616 0 7.660848 2.553616 10.214464 2.553616 7.660848 2.553616 12.76808 12.76808 7.660848 20.428928-5.107232 7.660848-15.321696 10.214464-22.982544 7.660848-7.660848 0-15.321696-2.553616-17.875311-12.76808-2.553616 0-2.553616 2.553616-2.553616 2.553616 2.553616 7.660848-5.107232 10.214464-10.214464 7.660848-5.107232-2.553616-10.214464 0-17.875312 0-10.214464 2.553616-17.875312-2.553616-17.875312-12.76808 2.553616-5.107232 2.553616-15.321696 2.553616-25.53616z m-56.179551 10.214464V206.842893c0-2.553616 0-5.107232 5.107232-5.107232 10.214464 0 22.982544-2.553616 33.197008 0 12.76808 2.553616 17.875312 15.321696 10.214463 25.536159-2.553616 5.107232-2.553616 5.107232 0 7.660848 10.214464 10.214464 5.107232 28.089776-10.214463 30.643392-12.76808 2.553616-25.53616 0-35.750624 0-5.107232 0-2.553616-5.107232-2.553616-7.660848v-22.982544z m0-43.411471v-25.53616-25.536159c0-5.107232 2.553616-5.107232 5.107232-5.107232h28.089776c15.321696 0 22.982544 12.76808 12.768079 25.536159-2.553616 2.553616 0 5.107232 0 5.107232 5.107232 5.107232 7.660848 12.76808 5.107232 20.428928-2.553616 7.660848-10.214464 10.214464-17.875311 10.214464h-28.089776c-5.107232 2.553616-5.107232 0-5.107232-5.107232z m-7.660848 163.431421h117.466334c0-5.107232-2.553616-10.214464-5.107231-15.321695 0-2.553616-7.660848-7.660848 0-7.660848 5.107232 0 10.214464-7.660848 15.321695 0l2.553616 2.553616c2.553616 17.875312 12.76808 20.428928 28.089776 17.875311 30.643392-2.553616 63.840399 0 94.48379 0 5.107232 0 10.214464-2.553616 10.214464 7.660848s-5.107232 7.660848-10.214464 7.660848h-74.054862c20.428928 12.76808 5.107232 22.982544 0 33.197008-5.107232 15.321696-7.660848 15.321696 7.660847 15.321695h45.965088c5.107232 0 7.660848 0 7.660848 7.660848v155.770574c0 12.76808-5.107232 20.428928-17.875312 22.982544-7.660848 2.553616-17.875312 2.553616-25.53616 2.553616-2.553616 0-5.107232-2.553616-5.107232-5.107232-5.107232-10.214464-5.107232-10.214464 7.660848-10.214464h5.107232c25.53616 0 22.982544 2.553616 22.982544-22.982544v-122.573566c0-7.660848-2.553616-10.214464-10.214464-10.214464H538.819352c-5.107232 0-7.660848 2.553616-7.660848 7.660848 0 30.643392-5.107232 28.089776 28.089775 28.089776h12.76808c5.107232 0 10.214464-2.553616 10.214464 7.660848 0 7.660848-2.553616 7.660848-10.214464 7.660847H538.819352c-17.875312 0-22.982544-7.660848-22.982544-22.982543 0-7.660848 2.553616-20.428928-2.553616-25.53616-5.107232-5.107232-15.321696 0-25.53616-2.553616h-5.107232c-7.660848 0-10.214464 0-12.768079 7.660848-5.107232 28.089776-25.53616 43.411471-51.07232 53.625935-10.214464 5.107232-10.214464-5.107232-12.768079-10.214464-2.553616-7.660848 5.107232-5.107232 7.660848-5.107232 17.875312-7.660848 33.197007-15.321696 38.304239-35.750623 2.553616-7.660848 2.553616-10.214464-7.660848-10.214464h-43.411471c-7.660848 0-7.660848 2.553616-7.660848 10.214464v155.770574c0 7.660848-2.553616 10.214464-10.214464 10.214463-5.107232 0-7.660848-2.553616-7.660848-7.660847v-68.947631-102.144639c0-7.660848 2.553616-10.214464 10.214464-10.214464h51.072319c7.660848 0 7.660848-2.553616 5.107232-7.660847-2.553616-7.660848-5.107232-15.321696-10.214464-20.428928-5.107232-7.660848-5.107232-12.76808 2.553616-17.875312h-68.947631c-5.107232 0-7.660848-2.553616-7.660848-7.660848 0-12.76808 2.553616-12.76808 10.214464-12.76808z m63.840399 158.32419c0-5.107232 2.553616-7.660848 7.660848-7.660848H549.033815c5.107232 0 7.660848 0 7.660848 7.660848v51.072319c0 5.107232-2.553616 7.660848-7.660848 7.660848H436.674713c-5.107232 0-7.660848 0-7.660848-7.660848 2.553616-17.875312 2.553616-35.750623 2.553616-51.072319z m-76.608479 383.042394c12.76808-28.089776 17.875312-56.179551 22.982544-86.822943 2.553616-25.53616 2.553616-48.518703 2.553616-74.054862v-84.269327c0-5.107232 0-7.660848 7.660848-7.660848h217.057357c7.660848 0 7.660848 2.553616 7.660847 7.660848v229.825436c0 17.875312-7.660848 25.53616-25.536159 28.089776-10.214464 0-17.875312 0-28.089776 2.553616-10.214464 0-15.321696-5.107232-12.768079-15.321696 0-5.107232 5.107232-2.553616 5.107231-2.553616h33.197008c7.660848 0 10.214464-2.553616 10.214464-10.214464v-109.805486c0-5.107232 0-7.660848-7.660848-7.660848h-186.413965c-5.107232 0-7.660848 2.553616-7.660848 7.660848 0 35.750623-5.107232 71.501247-15.321696 104.698254-2.553616 10.214464-7.660848 17.875312-10.214464 28.089776 0 2.553616-2.553616 7.660848-5.107232 5.107232-2.553616-5.107232-12.76808-5.107232-7.660848-15.321696z" fill="#2B2B2B" p-id="16471"></path><path d="M2.56 365.167082h181.306733C186.420349 245.147132 181.313117 122.573566 186.420349 2.553616H2.56V365.167082z" fill="#232323" p-id="16472"></path><path d="M211.956509 132.78803v232.379052h35.750623v-68.947631V17.875312 5.107232 2.553616H217.063741c-7.660848 43.411471-5.107232 86.822943-5.107232 130.234414z" fill="#0F0F0F" p-id="16473"></path><path d="M247.707132 5.107232c-2.553616 2.553616 0 7.660848 0 12.76808V5.107232z" fill="#0F0F0F" p-id="16474"></path><path d="M188.973965 12.76808c-2.553616 10.214464 0 20.428928 0 30.643391v301.326684c0 5.107232 0 12.76808-2.553616 17.875311h25.53616c-5.107232-2.553616-5.107232-7.660848-5.107232-10.214464V35.750623c0-10.214464 0-22.982544 7.660848-30.643391C206.849277 2.553616 196.634813 2.553616 186.420349 2.553616c2.553616 2.553616 2.553616 7.660848 2.553616 10.214464z" fill="#1B1B1B" p-id="16475"></path><path d="M183.866733 365.167082c2.553616 0 2.553616 0 0 0 5.107232-5.107232 5.107232-12.76808 5.107232-17.875311V45.965087 15.321696c0-5.107232 0-7.660848-2.553616-10.214464-5.107232 117.466334 0 240.0399-2.553616 360.05985zM206.849277 352.399002c0 5.107232 0 10.214464 2.553616 12.76808h2.553616V132.78803c0-43.411471-2.553616-86.822943 2.553616-130.234414-7.660848 7.660848-5.107232 20.428928-5.107232 30.643391C206.849277 140.448878 206.849277 245.147132 206.849277 352.399002z" fill="#1B1B1B" p-id="16476"></path><path d="M250.260748 2.553616s-2.553616 0 0 0c-2.553616 0-2.553616 0 0 0zM247.707132 1021.446384zM247.707132 10.214464v1008.678304l2.553616 2.553616v-1021.446384V2.553616c0 2.553616-2.553616 5.107232-2.553616 7.660848zM247.707132 5.107232c0-2.553616 0-2.553616 0 0 0-2.553616 0 0 0 0zM247.707132 365.167082V360.05985 10.214464 5.107232v360.05985zM247.707132 1021.446384s0 2.553616 0 0c0 2.553616 0 2.553616 0 0 0 2.553616 0 0 0 0zM247.707132 1021.446384s0 2.553616 0 0c2.553616 2.553616 2.553616 2.553616 0 0 2.553616 2.553616 0 0 0 0z" fill="#3C3C3C" p-id="16477"></path><path d="M881.00389 250.254364h5.107232c2.553616 0 5.107232 2.553616 5.107232 5.107232 2.553616 2.553616 0 10.214464 5.107232 12.76808 0-7.660848-2.553616-12.76808-2.553616-20.428928-5.107232 0-7.660848 2.553616-12.76808 2.553616zM875.896658 250.254364H883.557506h-7.660848zM891.218354 234.932668c2.553616-7.660848 0-15.321696 0-22.982543 0-2.553616-2.553616-7.660848 2.553616-10.214464-2.553616 2.553616-2.553616 7.660848-2.553616 10.214464-2.553616 7.660848 0 15.321696 0 22.982543-2.553616 2.553616 0 5.107232 0 5.107232-2.553616-2.553616 0-2.553616 0-5.107232zM875.896658 250.254364H870.789426h5.107232z" fill="#2E2E2E" p-id="16478"></path><path d="M891.218354 211.950125c0 7.660848 2.553616 15.321696 0 22.982543v12.76808c0 7.660848 2.553616 12.76808 2.553616 20.428928V201.735661c-5.107232 2.553616-2.553616 7.660848-2.553616 10.214464zM875.896658 247.700748h-12.768079c-2.553616 0-5.107232-2.553616-5.107232 2.553616s2.553616 5.107232 5.107232 5.107232c2.553616 2.553616 5.107232 0 7.660847-2.553616 5.107232-2.553616 12.76808-5.107232 15.321696 2.553616 2.553616-5.107232 0-5.107232-5.107232-5.107232h-5.107232-2.553616c5.107232 0 2.553616 0 2.553616-2.553616-2.553616 2.553616-5.107232 2.553616-5.107232 2.553616s2.553616 0 5.107232-2.553616c0 2.553616 2.553616 2.553616 5.107232 2.553616 5.107232 0 7.660848 0 7.660848-2.553616v-7.660848-5.107232c2.553616 10.214464 0 15.321696-12.76808 12.76808z" fill="#2E2E2E" p-id="16479"></path><path d="M888.664738 240.0399v7.660848c2.553616-2.553616 2.553616-5.107232 0-7.660848z" fill="#2E2E2E" p-id="16480"></path><path d="M717.572469 181.306733c2.553616 0 2.553616 2.553616 5.107232 5.107232s0 7.660848 2.553616 12.76808c0-5.107232-2.553616-12.76808-2.553616-17.875312H717.572469zM725.233317 171.092269c0-5.107232 0-12.76808 2.553616-17.875311-5.107232 2.553616 0 10.214464-2.553616 17.875311-2.553616-2.553616 0-2.553616 0 0zM712.465237 181.306733H720.126085h-7.660848zM704.804389 183.860349h7.660848c-2.553616-2.553616-5.107232-2.553616-7.660848 0z" fill="#393939" p-id="16481"></path><path d="M712.465237 178.753117h-12.76808c-2.553616 0-5.107232-2.553616-5.107232 2.553616 0 2.553616 2.553616 5.107232 5.107232 5.107232s5.107232 0 5.107232-2.553616c5.107232-2.553616 10.214464-2.553616 17.875312 0 0 0-2.553616-2.553616-5.107232-2.553616h-2.553616l-2.553616-2.553616c-2.553616 2.553616-5.107232 2.553616-7.660848 2.553616 2.553616 0 5.107232 0 7.660848-2.553616 2.553616 2.553616 5.107232 2.553616 5.107232 2.553616 2.553616 0 5.107232 0 7.660848-2.553616v-10.214464s0-2.553616-2.553616-2.553616c2.553616 12.76808 2.553616 12.76808-10.214464 12.76808zM725.233317 178.753117v20.428928c2.553616-7.660848 2.553616-15.321696 0-20.428928 2.553616-2.553616 0 0 0 0zM727.786933 173.645885v-20.428927c0 5.107232-2.553616 12.76808-2.553616 17.875311l2.553616 2.553616z" fill="#393939" p-id="16482"></path><path d="M727.786933 176.199501v-5.107232s0-2.553616-2.553616-2.553616v10.214464l2.553616-2.553616c-2.553616 2.553616 0 0 0 0z" fill="#393939" p-id="16483"></path><path d="M669.053766 234.932668c0 2.553616 0 2.553616 0 0 5.107232-2.553616 10.214464 2.553616 12.768079-2.553616-2.553616 5.107232-7.660848 2.553616-12.768079 2.553616z" fill="#505050" p-id="16484"></path><path d="M663.946534 229.825436c-2.553616-2.553616-5.107232 0-5.107232 2.553616s2.553616 2.553616 5.107232 2.553616h7.660848s-2.553616 0-2.553616-2.553616c5.107232-2.553616 7.660848 0 12.768079-2.553616-5.107232 5.107232-12.76808 5.107232-17.875311 0zM712.465237 234.932668c0 2.553616 2.553616 2.553616 0 0 5.107232-2.553616 10.214464 2.553616 12.76808-2.553616-2.553616 5.107232-7.660848 2.553616-12.76808 2.553616z" fill="#505050" p-id="16485"></path><path d="M707.358005 229.825436c-2.553616-2.553616-5.107232 0-5.107232 2.553616s2.553616 2.553616 2.553616 5.107232c2.553616 0 5.107232 0 7.660848 2.553616 0 0-2.553616 0-2.553616-2.553616 5.107232-2.553616 7.660848 0 12.76808-2.553616-2.553616-2.553616-10.214464 0-15.321696-5.107232z" fill="#505050" p-id="16486"></path><path d="M168.545037 370.274314c-25.53616 2.553616-48.518703 0-74.054862 0H15.32808c-5.107232 0-7.660848 0-12.76808-2.553616 2.553616 5.107232 2.553616 10.214464 2.553616 15.321696V886.104738h160.877805c2.553616-171.092269 2.553616-344.738155 2.553616-515.830424z" fill="#FE6701" p-id="16487"></path><path d="M15.32808 370.274314h150.663341v-2.553616H0.006384s0 2.553616 2.553616 2.553616h12.76808z" fill="#FE6701" p-id="16488"></path><path d="M5.113616 888.658354v-12.76808-112.359102V385.59601c0-5.107232 0-10.214464-2.553616-15.321696l-2.553616-2.553616v520.937656h5.107232zM2.56 365.167082c0 2.553616 2.553616 2.553616 0 0 2.553616 2.553616 0 0 0 0z" fill="#FE6701" p-id="16489"></path><path d="M171.098653 383.042394v490.294264c0 5.107232 0 10.214464-2.553616 15.321696H181.313117V367.720698c-2.553616 2.553616-7.660848 2.553616-10.214464 2.553616 2.553616 2.553616 0 7.660848 0 12.76808z" fill="#EF6000" p-id="16490"></path><path d="M171.098653 370.274314c5.107232 0 7.660848 0 10.214464-2.553616v-2.553616h-12.76808c0 2.553616 2.553616 2.553616 2.553616 5.107232zM168.545037 888.658354c2.553616-5.107232 2.553616-10.214464 2.553616-15.321696V615.421446v-232.379052c0-5.107232 0-10.214464-2.553616-12.76808h-2.553616c2.553616 171.092269 2.553616 344.738155 2.553616 518.38404zM171.098653 370.274314l-2.553616-2.553616v2.553616h2.553616z" fill="#EF6000" p-id="16491"></path><path d="M186.420349 383.042394v490.294264c0 5.107232 0 12.76808-2.553616 17.875312h10.214464V372.82793c-2.553616 0-7.660848 0-7.660848-2.553616h-2.553616c2.553616 2.553616 2.553616 7.660848 2.553616 12.76808zM183.866733 367.720698c0-2.553616 0-2.553616 0 0 0-2.553616 0-2.553616 0 0 0-2.553616 0 0 0 0zM194.081197 367.720698v-2.553616h-7.660848c0 2.553616 5.107232 2.553616 7.660848 2.553616zM186.420349 365.167082c-2.553616 0-2.553616 0 0 0-2.553616 0-2.553616 0 0 0z" fill="#D75700" p-id="16492"></path><path d="M183.866733 888.658354c2.553616-5.107232 2.553616-10.214464 2.553616-17.875312V602.653367v-222.164589c0-5.107232 0-10.214464-2.553616-15.321696-2.553616 176.199501-2.553616 349.845387 0 523.491272z" fill="#D75700" p-id="16493"></path><path d="M183.866733 367.720698s0-2.553616 0 0c-2.553616 0-2.553616 0 0 0-2.553616 0 0 0 0 0z" fill="#D75700" p-id="16494"></path><path d="M229.83182 888.658354h15.321696v-12.76808-492.84788c0-5.107232 0-10.214464 2.553616-15.321696-5.107232 2.553616-10.214464 2.553616-15.321696 2.553616-2.553616 171.092269-2.553616 344.738155-2.553616 518.38404zM229.83182 367.720698c5.107232 0 10.214464 2.553616 15.321696-2.553616h-17.875312l2.553616 2.553616zM247.707132 365.167082z" fill="#592300" p-id="16495"></path><path d="M245.153516 383.042394v505.61596h2.553616V367.720698c-5.107232 5.107232-2.553616 10.214464-2.553616 15.321696zM247.707132 367.720698v0c0-2.553616 0 0 0 0zM247.707132 367.720698zM247.707132 367.720698c0-2.553616 0-2.553616 0 0 0-2.553616 0-2.553616 0 0 0-2.553616 0-2.553616 0 0z" fill="#592300" p-id="16496"></path><path d="M214.510125 888.658354h15.321695c-2.553616-2.553616-2.553616-7.660848-2.553616-12.76808V380.488778c0-2.553616 0-7.660848 2.553616-10.214464-5.107232 0-10.214464 0-12.768079-2.553616-2.553616 173.645885-2.553616 347.291771-2.553616 520.937656z" fill="#7D3300" p-id="16497"></path><path d="M227.278204 370.274314l2.553616-2.553616h-15.321695v2.553616h12.768079zM224.724589 380.488778v495.401496c0 5.107232 0 7.660848 2.553615 12.76808V370.274314h-2.553615v10.214464z" fill="#7D3300" p-id="16498"></path><path d="M229.83182 367.720698v-2.553616c0 2.553616-2.553616 2.553616 0 2.553616-2.553616 2.553616 0 2.553616 0 0z" fill="#7D3300" p-id="16499"></path><path d="M211.956509 888.658354c-2.553616-2.553616-2.553616-7.660848-2.553616-12.76808V380.488778c0-5.107232 0-10.214464 2.553616-12.76808h-2.553616c-2.553616 2.553616-2.553616 2.553616-5.107232 2.553616v518.38404h7.660848zM211.956509 367.720698s2.553616-2.553616 0 0c2.553616-2.553616 0-2.553616 0 0 0-2.553616 0-2.553616 0 0zM206.849277 367.720698c2.553616 0 5.107232 0 5.107232-2.553616-2.553616 0-5.107232 0-5.107232 2.553616zM211.956509 365.167082z" fill="#A34200" p-id="16500"></path><path d="M209.402893 380.488778v495.401496c0 5.107232 0 7.660848 2.553616 12.76808h2.553616V367.720698c-5.107232 2.553616-5.107232 7.660848-5.107232 12.76808zM214.510125 367.720698c0-2.553616-2.553616 0 0 0-2.553616 0-2.553616 0 0 0z" fill="#A34200" p-id="16501"></path><path d="M199.188429 383.042394V870.783042c0 5.107232 0 12.76808-2.553616 17.875312H206.849277c-2.553616-5.107232-2.553616-7.660848-2.553616-12.76808V380.488778c0-2.553616 0-7.660848 2.553616-10.214464h-7.660848v12.76808zM196.634813 370.274314h7.660848l2.553616-2.553616h-12.76808s2.553616 0 2.553616 2.553616z" fill="#BA4B00" p-id="16502"></path><path d="M196.634813 888.658354c2.553616-5.107232 2.553616-10.214464 2.553616-17.875312V594.992519v-211.950125c0-5.107232 0-10.214464-2.553616-12.76808h-2.553616c0 171.092269 0 344.738155 2.553616 518.38404-2.553616 0-2.553616 0 0 0z" fill="#BA4B00" p-id="16503"></path><path d="M196.634813 370.274314l-2.553616-2.553616 2.553616 2.553616c-2.553616-2.553616 0-2.553616 0 0zM201.742045 380.488778v495.401496c0 5.107232 0 10.214464 2.553616 12.76808V370.274314h-2.553616v10.214464zM206.849277 367.720698v-2.553616c-2.553616 2.553616-2.553616 2.553616 0 2.553616-2.553616 0-2.553616 0 0 0z" fill="#BA4B00" p-id="16504"></path><path d="M199.188429 939.730673v-48.518703c-2.553616 0-5.107232 0-5.107232-2.553616-5.107232 2.553616-7.660848 2.553616-12.76808 0-5.107232 2.553616-10.214464 5.107232-12.76808 0-2.553616 2.553616-7.660848 2.553616-12.768079 2.553616H15.32808c-2.553616 0-7.660848 0-10.214464-2.553616v120.01995c0 5.107232 2.553616 7.660848 7.660848 7.660848h188.967581c-2.553616-22.982544 0-48.518703-2.553616-76.608479z" fill="#232323" p-id="16505"></path><path d="M204.295661 1021.446384H15.32808c-5.107232 0-7.660848-2.553616-7.660848-7.660848v-10.214464-109.805486l-2.553616-2.553616v130.234414c-2.553616 0 0 2.553616 2.553616 2.553616h196.628429v-2.553616zM155.776958 891.21197c5.107232 0 10.214464 0 12.768079-2.553616H7.667232v2.553616c2.553616 2.553616 5.107232 2.553616 10.214464 2.553616 43.411471-2.553616 91.930175-2.553616 137.895262-2.553616zM5.113616 888.658354H2.56c2.553616 0 2.553616 2.553616 2.553616 0zM168.545037 888.658354c5.107232 5.107232 7.660848 5.107232 12.76808 0h-12.76808zM168.545037 888.658354zM183.866733 888.658354c2.553616 5.107232 7.660848 2.553616 10.214464 0h-10.214464zM183.866733 888.658354s-2.553616 0 0 0c-2.553616 0 0 0 0 0zM196.634813 888.658354c-2.553616 0-2.553616 0 0 0-2.553616 0-2.553616 0 0 0 0 2.553616 2.553616 2.553616 5.107232 2.553616v-2.553616h-5.107232zM196.634813 888.658354c-2.553616 0-2.553616 0 0 0-2.553616 0-2.553616 0 0 0-2.553616 0-2.553616 0 0 0-2.553616 0-2.553616 0 0 0z" fill="#232323" p-id="16506"></path><path d="M245.153516 891.21197c-5.107232 2.553616-10.214464 2.553616-15.321696-2.553616-5.107232 5.107232-10.214464 5.107232-15.321695 0-2.553616 2.553616-5.107232 2.553616-7.660848 0l-2.553616 2.553616c2.553616 2.553616 2.553616 7.660848 2.553616 12.76808V972.927681c0 12.76808 0 28.089776 2.553616 40.857855v10.214464c12.76808 0 25.53616-2.553616 40.857855 0-2.553616-2.553616-2.553616-5.107232-2.553616-7.660848-2.553616-43.411471-5.107232-84.269327-2.553616-125.127182z" fill="#111111" p-id="16507"></path><path d="M206.849277 1021.446384s0 2.553616-2.553616 2.553616h43.411471l-2.553616-2.553616c-12.76808-2.553616-25.53616-2.553616-38.304239 0zM247.707132 1006.124688v-117.466334s-2.553616 0-2.553616 2.553616v122.573566c0 2.553616 0 5.107232 2.553616 7.660848-2.553616-5.107232 0-10.214464 0-15.321696zM247.707132 1006.124688V888.658354v117.466334zM247.707132 1021.446384s-2.553616 0 0 0c0 2.553616 0 0 0 0zM245.153516 888.658354h-15.321696c5.107232 2.553616 10.214464 5.107232 15.321696 0z" fill="#111111" p-id="16508"></path><path d="M245.153516 888.658354c0 2.553616 2.553616 2.553616 2.553616 0h-2.553616zM247.707132 888.658354zM229.83182 888.658354h-15.321695c5.107232 2.553616 10.214464 5.107232 15.321695 0zM229.83182 888.658354zM211.956509 888.658354h-7.660848c5.107232 2.553616 5.107232 2.553616 7.660848 0zM211.956509 888.658354c2.553616 0 2.553616 0 0 0 2.553616 0 0 0 0 0z" fill="#111111" p-id="16509"></path><path d="M204.295661 888.658354h-5.107232l2.553616 2.553616c2.553616 0 2.553616-2.553616 2.553616-2.553616zM204.295661 888.658354c2.553616 0 2.553616 0 0 0 2.553616 0 0 0 0 0z" fill="#111111" p-id="16510"></path><path d="M206.849277 1011.23192c-2.553616-12.76808-2.553616-28.089776-2.553616-40.857855v-68.947631c0-5.107232 0-7.660848-2.553616-12.76808h-2.553616v48.518703c0 25.53616-2.553616 53.625935 2.553616 79.162095h2.553616c2.553616 0 2.553616-2.553616 2.553616-5.107232zM204.295661 1021.446384v2.553616l2.553616-2.553616h-2.553616z" fill="#111111" p-id="16511"></path><path d="M199.188429 891.21197c2.553616 0 2.553616 0 0 0 2.553616-2.553616 2.553616-2.553616 0 0 0-2.553616 0 0 0 0z" fill="#111111" p-id="16512"></path><path d="M584.784439 712.458853h-76.608479c-5.107232 0-7.660848 0-7.660848 7.660848v22.982543c0 5.107232 2.553616 7.660848 7.660848 7.660848h76.608479c5.107232 0 7.660848 0 7.660848-7.660848v-22.982543c2.553616-5.107232-2.553616-7.660848-7.660848-7.660848zM485.193416 720.119701c0-5.107232-2.553616-7.660848-7.660847-7.660848h-76.608479c-5.107232 0-7.660848 0-7.660848 7.660848v25.536159c0 5.107232 2.553616 5.107232 5.107232 5.107232h53.625935c10.214464 0 22.982544 5.107232 28.089776-2.553616 7.660848-5.107232 5.107232-17.875312 5.107231-28.089775z" fill="#2C2C2C" p-id="16513"></path><path d="M395.816858 689.476309c0 5.107232 2.553616 7.660848 7.660848 7.660848h53.625935c10.214464 0 20.428928 5.107232 25.536159-2.553616 5.107232-5.107232 0-17.875312 2.553616-28.089775 0-7.660848-2.553616-7.660848-7.660847-7.660848h-53.625936c-10.214464 0-20.428928-5.107232-25.536159 2.553616-7.660848 7.660848-2.553616 17.875312-2.553616 28.089775zM503.068728 689.476309c0 7.660848 2.553616 7.660848 10.214464 7.660848H566.909127c10.214464 0 22.982544 5.107232 25.53616-2.553616 5.107232-5.107232 0-17.875312 2.553616-28.089775 0-7.660848-2.553616-7.660848-7.660848-7.660848h-53.625935c-7.660848 0-20.428928-2.553616-25.53616 2.553616-10.214464 5.107232-5.107232 17.875312-5.107232 28.089775z" fill="#2B2B2B" p-id="16514"></path><path d="M462.210873 413.685786c2.553616 5.107232 2.553616 5.107232 7.660848 5.107231h48.518703c5.107232 0 7.660848 0 7.660848-5.107231 5.107232-12.76808 10.214464-25.53616 15.321696-35.750624 2.553616-5.107232 0-7.660848-5.107232-5.107232h-84.269327c-5.107232 0-7.660848 0-5.107232 7.660848 5.107232 7.660848 10.214464 20.428928 15.321696 33.197008z" fill="#2C2C2C" p-id="16515"></path><path d="M543.926584 814.603491c0-5.107232-2.553616-5.107232-5.107232-5.107232h-86.822943c-5.107232 0-7.660848 2.553616-7.660848 7.660848V845.246883c0 7.660848 2.553616 7.660848 7.660848 7.660848h84.269327c5.107232 0 7.660848 0 7.660848-5.107232v-33.197008z" fill="#2B2B2B" p-id="16516"></path><path d="M457.103641 554.134663h58.733167c25.53616 0 25.53616 0 25.53616-25.536159 0-7.660848-2.553616-7.660848-7.660848-7.660848h-56.179551c-28.089776 0-28.089776 0-25.53616 28.089775-2.553616 5.107232-2.553616 5.107232 5.107232 5.107232z" fill="#2D2D2D" p-id="16517"></path><path d="M400.92409 240.0399c-2.553616 0-7.660848 0-7.660848 5.107232s0 7.660848 7.660848 7.660848c5.107232 0 12.76808 0 12.76808-7.660848-2.553616-5.107232-7.660848-5.107232-12.76808-5.107232z" fill="#2F2F2F" p-id="16518"></path><path d="M398.370474 227.27182c5.107232 0 10.214464 0 10.214464-5.107231s-5.107232-5.107232-10.214464-5.107232-7.660848 0-7.660848 5.107232c2.553616 5.107232 5.107232 5.107232 7.660848 5.107231z" fill="#464646" p-id="16519"></path><path d="M398.370474 183.860349c5.107232 0 10.214464 0 12.76808-7.660848 0-7.660848-5.107232-7.660848-10.214464-7.660848s-7.660848 0-7.660848 7.660848 2.553616 7.660848 5.107232 7.660848z" fill="#3F3F3F" p-id="16520"></path><path d="M398.370474 158.32419c5.107232 0 7.660848 0 10.214464-5.107232 0-5.107232-5.107232-5.107232-10.214464-5.107232s-7.660848 0-7.660848 5.107232c2.553616 5.107232 5.107232 5.107232 7.660848 5.107232z" fill="#323232" p-id="16521"></path><path d="M781.412868 183.860349c5.107232 0 5.107232-5.107232 7.660848-10.214464 0-5.107232-2.553616-7.660848-7.660848-7.660848-5.107232 0-7.660848 5.107232-7.660848 10.214464 0 2.553616 2.553616 7.660848 7.660848 7.660848z" fill="#333333" p-id="16522"></path><path d="M651.178454 186.413965c7.660848 0 7.660848-5.107232 7.660848-10.214464s0-12.76808-7.660848-10.214464c-7.660848 0-7.660848 5.107232-7.660848 10.214464s0 10.214464 7.660848 10.214464z" fill="#343434" p-id="16523"></path><path d="M615.42783 232.379052c-2.553616 0-5.107232 2.553616-5.107231 5.107232 0 5.107232 5.107232 2.553616 7.660847 2.553616 2.553616 0 5.107232 2.553616 7.660848-2.553616-2.553616-2.553616-5.107232-5.107232-10.214464-5.107232z" fill="#505050" p-id="16524"></path><path d="M699.697157 171.092269c2.553616 0 5.107232 2.553616 5.107232-2.553616 0-2.553616-2.553616-5.107232-5.107232-5.107232s-5.107232 2.553616-5.107232 5.107232c0 5.107232 5.107232 0 5.107232 2.553616z" fill="#3E3E3E" p-id="16525"></path><path d="M526.051272 188.967581c7.660848 0 5.107232-7.660848 7.660848-12.76808 0-5.107232 0-12.76808-7.660848-12.76808s-7.660848 7.660848-7.660848 12.76808-2.553616 12.76808 7.660848 12.76808z" fill="#323232" p-id="16526"></path><path d="M474.978953 188.967581c7.660848 0 7.660848-7.660848 7.660847-12.76808s0-12.76808-7.660847-12.76808-7.660848 7.660848-7.660848 12.76808 0 10.214464 7.660848 12.76808z" fill="#333333" p-id="16527"></path><path d="M817.163491 240.0399c2.553616 0 7.660848 2.553616 7.660848-2.553616S819.717107 232.379052 817.163491 232.379052c-2.553616 0-5.107232 2.553616-5.107232 5.107232-2.553616 2.553616 2.553616 0 5.107232 2.553616z" fill="#393939" p-id="16528"></path><path d="M865.682195 240.0399c2.553616 0 5.107232 0 5.107231-2.553616 2.553616-5.107232-2.553616-5.107232-5.107231-5.107232s-5.107232 2.553616-5.107232 5.107232 2.553616 0 5.107232 2.553616z" fill="#505050" p-id="16529"></path></svg>