<?xml version="1.0" standalone="no"?><!DOCTYPE svg PUBLIC "-//W3C//DTD SVG 1.1//EN" "http://www.w3.org/Graphics/SVG/1.1/DTD/svg11.dtd"><svg t="1723873172771" class="icon" viewBox="0 0 1269 1024" version="1.1" xmlns="http://www.w3.org/2000/svg" p-id="4744" xmlns:xlink="http://www.w3.org/1999/xlink" width="247.8515625" height="200"><path d="M827.392 360.448c8.192 0 13.653333 0 21.845333 2.730667-32.768-133.802667-174.762667-232.106667-344.064-232.106667-196.608 0-352.256 131.072-352.256 294.912 0 95.573333 54.613333 182.954667 139.264 234.837333l-32.768 87.381334 120.149334-49.152c38.229333 13.653333 81.92 21.845333 128.341333 21.845333 10.922667 0 21.845333 0 32.768-2.730667-13.653333-27.306667-21.845333-60.074667-21.845333-95.573333-2.730667-144.725333 133.802667-262.144 308.565333-262.144zM628.053333 267.605333c32.768 0 57.344 21.845333 57.344 49.152s-24.576 49.152-57.344 49.152-57.344-21.845333-57.344-49.152 24.576-49.152 57.344-49.152z m-245.76 98.304c-32.768 0-57.344-21.845333-57.344-49.152s24.576-49.152 57.344-49.152 57.344 21.845333 57.344 49.152-27.306667 49.152-57.344 49.152z" fill="#00B309" p-id="4745"></path><path d="M1125.034667 630.784c0-136.533333-131.072-248.490667-292.181334-248.490667-161.109333 0-292.181333 109.226667-292.181333 248.490667 0 136.533333 131.072 248.490667 292.181333 248.490667 38.229333 0 73.728-8.192 109.226667-19.114667l98.304 38.229333-27.306667-73.728c68.266667-43.690667 114.688-114.688 111.957334-193.877333z m-398.677334-40.96c-24.576 0-46.421333-16.384-46.421333-38.229333 0-21.845333 21.845333-38.229333 46.421333-38.229334s46.421333 16.384 46.421334 38.229334c0 19.114667-21.845333 38.229333-46.421334 38.229333z m202.069334 0c-24.576 0-46.421333-16.384-46.421334-38.229333 0-21.845333 21.845333-38.229333 46.421334-38.229334 24.576 0 46.421333 16.384 46.421333 38.229334 0 19.114667-21.845333 38.229333-46.421333 38.229333z" fill="#00B309" p-id="4746"></path></svg>