<?xml version="1.0" standalone="no"?><!DOCTYPE svg PUBLIC "-//W3C//DTD SVG 1.1//EN" "http://www.w3.org/Graphics/SVG/1.1/DTD/svg11.dtd"><svg t="1724033522990" class="icon" viewBox="0 0 1024 1024" version="1.1" xmlns="http://www.w3.org/2000/svg" p-id="3492" xmlns:xlink="http://www.w3.org/1999/xlink" width="200" height="200"><path d="M940.8 217.6c32 19.2 51.2 51.2 51.2 89.6v409.6c0 38.4-19.2 70.4-51.2 89.6l-371.2 204.8c-19.2 6.4-38.4 12.8-57.6 12.8-19.2 0-38.4-6.4-51.2-12.8L89.6 806.4c-38.4-19.2-57.6-51.2-57.6-89.6V307.2c0-38.4 19.2-70.4 51.2-89.6L454.4 12.8c32-19.2 76.8-19.2 108.8 0l377.6 204.8z m-19.2 96c0-12.8-6.4-32-19.2-38.4L537.6 76.8c-12.8-6.4-19.2-6.4-25.6-6.4-6.4 0-12.8 0-25.6 6.4L128 275.2c-12.8 6.4-25.6 19.2-25.6 38.4v396.8c0 12.8 6.4 32 19.2 38.4l364.8 198.4c12.8 6.4 32 6.4 44.8 0l364.8-198.4c12.8-6.4 19.2-19.2 19.2-38.4l6.4-396.8z m-128 25.6c12.8 12.8 6.4 32-12.8 44.8L544 518.4v281.6c0 19.2-12.8 32-32 32s-32-12.8-32-32V518.4L243.2 384c-19.2-12.8-25.6-32-12.8-44.8 6.4-19.2 25.6-25.6 44.8-12.8l236.8 140.8 243.2-140.8c12.8-12.8 32-6.4 38.4 12.8z" fill="#0399FF" p-id="3493"></path></svg>