<?xml version="1.0" standalone="no"?><!DOCTYPE svg PUBLIC "-//W3C//DTD SVG 1.1//EN" "http://www.w3.org/Graphics/SVG/1.1/DTD/svg11.dtd"><svg t="1724033535719" class="icon" viewBox="0 0 1024 1024" version="1.1" xmlns="http://www.w3.org/2000/svg" p-id="3635" xmlns:xlink="http://www.w3.org/1999/xlink" width="200" height="200"><path d="M511.2 516.8m-147.2 0a147.2 147.2 0 1 0 294.4 0 147.2 147.2 0 1 0-294.4 0Z" fill="#F5645D" opacity=".2" p-id="3636"></path><path d="M964.8 59.2c92 92 72 268-36.8 452.8 108.8 184.8 128.8 360.8 36.8 452.8-39.2 39.2-94.4 58.4-159.2 58.4-85.6 0-188-33.6-293.6-95.2-104.8 61.6-208 95.2-293.6 95.2-64.8 0-120-19.2-159.2-58.4-92-92-72-268 36.8-452.8C-12.8 327.2-32.8 151.2 59.2 59.2 151.2-32.8 327.2-12.8 512 96c184.8-108.8 360.8-128.8 452.8-36.8zM679.2 96c-32 11.2-65.6 25.6-98.4 43.2 59.2 41.6 114.4 88 164.8 139.2 51.2 51.2 97.6 106.4 139.2 164.8 17.6-33.6 32-66.4 43.2-98.4 36-104.8 31.2-190.4-13.6-235.2-24.8-24.8-62.4-37.6-108.8-37.6-37.6 0-80 8-126.4 24z m164.8 416c-43.2-66.4-93.6-127.2-149.6-183.2-56-56-116.8-106.4-183.2-149.6C445.6 222.4 384 272.8 328 328.8c-56 56-106.4 116.8-149.6 183.2C221.6 578.4 272 639.2 328 695.2c56 56 116.8 106.4 183.2 149.6 66.4-43.2 127.2-93.6 183.2-149.6 56-56 106.4-116.8 149.6-183.2zM96.8 344.8c11.2 32 25.6 65.6 43.2 98.4 41.6-59.2 88-114.4 139.2-164.8 51.2-51.2 106.4-97.6 164.8-139.2-32-16.8-64.8-31.2-98.4-43.2-47.2-16-89.6-24-127.2-24-46.4 0-84 12.8-108.8 37.6-44.8 44.8-49.6 131.2-12.8 235.2z m248 583.2c33.6-12 67.2-26.4 98.4-43.2-59.2-41.6-114.4-88-164.8-139.2-51.2-51.2-97.6-106.4-139.2-164.8-17.6 33.6-32 66.4-43.2 98.4-36 104.8-31.2 190.4 13.6 235.2s130.4 49.6 235.2 13.6zM928 679.2c-12-33.6-26.4-67.2-43.2-98.4-41.6 59.2-88 114.4-139.2 164.8-51.2 51.2-106.4 97.6-164.8 139.2 33.6 17.6 66.4 32 98.4 43.2 104.8 36 190.4 31.2 235.2-13.6s49.6-130.4 13.6-235.2zM431.2 512c0-44.8 36-80.8 80.8-80.8S592.8 467.2 592.8 512 556.8 592.8 512 592.8 431.2 556.8 431.2 512z" fill="#F5645D" p-id="3637"></path></svg>