<?xml version="1.0" standalone="no"?><!DOCTYPE svg PUBLIC "-//W3C//DTD SVG 1.1//EN" "http://www.w3.org/Graphics/SVG/1.1/DTD/svg11.dtd"><svg t="1723994491568" class="icon" viewBox="0 0 1025 1024" version="1.1" xmlns="http://www.w3.org/2000/svg" p-id="9491" xmlns:xlink="http://www.w3.org/1999/xlink" width="200.1953125" height="200"><path d="M-108.16934525-104.6631729h1238.04154326v1238.04154327H-108.16934525z" fill="#9FFFF7" p-id="9492"></path><path d="M215.48663269 752.29370778c-12.81566432-95.63387282 43.28309343-228.98932426 89.46784544-283.99995988-2.7807568-33.36908891-7.13324771-119.08895722 18.61898392-133.83906099 21.27883893-12.21115175 73.62961954 17.65176479 106.87780546 39.53511507l330.30561489 2.29714845c33.00638113-21.8833515 88.25882154-54.28522006 110.26307482-41.71136052 28.65389143 16.44273968 19.94891203 120.78159189 17.77266657 143.02764995 44.25031255 53.19709795 73.26691177 214.11831747 73.26691176 284.48356943" fill="#4DECE1" p-id="9493"></path><path d="M809.915361 689.075591c1.295068 28.790349-26.698317 39.648993-63.757174 39.648993s-72.125304-7.770406-70.332134-39.648993c1.69355-30.68314 36.261893-55.588287 67.044654-55.588287 34.468723 0 65.749587 24.905146 67.044654 55.588287zM319.184356 689.075591c1.295068 28.790349-26.698317 39.648993-63.757174 39.648993s-72.125304-7.770406-70.332134-39.648993c1.69355-30.68314 36.261893-55.588287 67.044654-55.588287 34.369102 0 65.649966 24.905146 67.044654 55.588287z" fill="#4DECE1" p-id="9494"></path><path d="M125.53517648 697.40397515c-12.81566432-95.63387282 43.28309343-228.98932426 89.46784544-283.99995988-2.7807568-33.36908891-7.13324771-119.08895722 18.61898513-133.83906099 21.27883893-12.21115175 73.62961954 17.65176479 106.87780425 39.53511629l330.30561488 2.29714724c33.00638113-21.8833515 88.25882154-54.28522006 110.26307481-41.71136053 28.65389143 16.44273968 19.94891203 120.78159189 17.77266657 143.02764995 44.25031255 53.19709795 73.26691177 214.11831747 73.26691177 284.48357065" fill="#FFFFFF" p-id="9495"></path><path d="M879.72493661 707.07617488h-15.23371456c0-36.75435827-7.73775906-94.4248477-19.82800903-146.8965313-14.38739722-62.86929769-32.76457635-109.90036704-51.62536505-132.63003587-1.3299269-1.5717329-1.93443946-3.62707536-1.69263468-5.68241781 5.80331961-58.1541002 3.86888014-125.37588637-14.02468944-135.65259868-5.07790526-2.9016598-27.20306154-8.34227163-102.28350976 41.46955576-1.20902512 0.84631734-2.7807568 1.3299269-4.23158791 1.3299281l-330.30561488-2.29714845c-1.4508299 0-2.9016598-0.48360957-4.11068493-1.2090239-72.42059442-47.51468013-94.06214113-42.07406831-98.8982404-39.29331151-14.62920199 8.34227163-20.43252159 58.03319721-14.75010377 126.58491149 0.120903 2.05534245-0.48360957 3.98978192-1.81353769 5.56151483-45.0966299 53.55980451-100.22816851 185.22262126-87.77521075 278.07573727l-15.11281156 2.05534246c-5.9242226-44.25031255 2.17624545-101.31629063 22.97147362-160.80031774 17.40995879-49.93273037 42.07406831-96.96380094 66.25456704-126.70581328-1.3299269-16.56364146-2.9016598-45.33843589-1.20902512-71.93698486 2.41805024-36.63345527 10.1558093-58.27500199 23.81779095-66.13366405 18.9816917-10.88122485 57.06597686 2.05534245 113.04383284 38.44699295l325.7113204 2.17624546c57.79139243-38.08428517 96.96380094-51.86716982 116.4291022-40.7441414 14.75010378 8.46317462 22.72966883 33.24818591 24.30140051 75.684962 1.08812212 28.65389143-1.08812212 57.79139243-2.41804902 71.57427708 45.2175329 58.39590499 72.7833022 217.86629461 72.78330099 287.02252145z" fill="#6B3437" p-id="9496"></path><path d="M948.51845689 714.93483694H21.19632426c-4.95700226 0-8.94678418-3.98978192-8.94678539-8.94678417s3.98978192-8.94678418 8.94678539-8.9467854h927.32213263c4.95700226 0 8.94678418 3.98978192 8.94678418 8.9467854s-3.98978192 8.94678418-8.94678418 8.94678417z" fill="#6B3437" p-id="9497"></path><path d="M291.65520426 518.10557648a26.35674419 18.01447136 90 1 0 36.02894272 0 26.35674419 18.01447136 90 1 0-36.02894272 0Z" fill="" p-id="9498"></path><path d="M503.59727628 332.39934445h168.17537024s80.40015826-51.02085249 103.12982831-43.40399521c22.72966883 7.61685728 32.28096558 34.57811282 21.27883893 140.24689315 0 0 37.47977383 69.7607394 37.11706484 88.01701554 0 0-106.63600067 154.51338737-293.79306139 40.74414141-95.8756776-67.22178738-77.49849846-184.85991348-35.90804093-225.60405489z" fill="#FEAE02" p-id="9499"></path><path d="M624.0161616 518.10557648a26.35674419 18.01447136 90 1 0 36.02894272 0 26.35674419 18.01447136 90 1 0-36.02894272 0Z" fill="" p-id="9500"></path><path d="M457.41252426 595.36227018c-7.37505249 0-14.26649422-3.26436758-18.86078991-9.06768719-1.69263468-2.17624545-1.3299269-5.19880704 0.72541555-7.01234472 2.17624545-1.69263468 5.19880704-1.3299269 7.01234472 0.72541435 2.7807568 3.38526937 6.77053994 5.31971004 11.12302964 5.31971004 7.85866206 0 14.38739722-6.40783216 14.38739601-14.387396 0-2.7807568 2.17624545-4.95700226 4.95700225-4.95700348s4.95700226 2.17624545 4.95700226 4.95700348c0 13.54107987-10.88122485 24.42230352-24.30140052 24.42230352z" fill="" p-id="9501"></path><path d="M496.34312677 595.36227018c-13.42017687 0-24.18049874-10.88122485-24.18049873-24.18049875 0-2.7807568 2.17624545-4.95700226 4.95700226-4.95700226s4.95700226 2.17624545 4.95700225 4.95700226c0 7.85866206 6.40783216 14.38739722 14.38739722 14.387396 4.3524897 0 8.46317462-1.93443946 11.12302963-5.31970882 1.69263468-2.17624545 4.83609926-2.41805024 7.01234473-0.72541555 2.17624545 1.69263468 2.41805024 4.83609926 0.72541433 7.01234472-4.71519747 5.44061182-11.6066392 8.8258824-18.98169169 8.8258824z" fill="" p-id="9502"></path><path d="M492.23244186 364.31760347c-5.19880704 14.26649422-10.39761408 20.91613116-22.72966884 20.91613115-12.33205475 0-17.77266657-9.67219973-22.36696106-22.48786406-5.80331961-15.9591289 5.68241781-31.31374645 22.24605928-30.83013567 20.19071681 0.60451257 28.65389143 16.44273968 22.85057062 32.40186858zM552.20007973 355.73352585c-3.74797714 7.25414949-7.49595428 10.51851708-16.44273967 10.51851707-8.8258824 0-12.81566432-4.95700226-16.08003189-11.36483442-4.2315867-8.10046684 4.11068492-15.83822711 16.08003189-15.59642233 14.62920199 0.36270778 20.67432638 8.34227163 16.44273967 16.44273968zM426.94509515 355.73352585c-3.74797714 7.25414949-7.49595428 10.51851708-16.44273967 10.51851707-8.8258824 0-12.81566432-4.95700226-16.08003191-11.36483442-4.2315867-8.10046684 4.11068492-15.83822711 16.08003191-15.59642233 14.62920199 0.36270778 20.67432638 8.34227163 16.44273967 16.44273968z" fill="#F97700" p-id="9503"></path><path d="M457.77523083 539.50531721h40.50233663c6.52873516 0 10.03490751 7.61685728 5.80331959 12.57385953l-20.79522938 19.94891204c-3.02256279 3.50617236-8.58407762 3.50617236-11.6066392 0l-19.70710725-19.94891204c-4.2315867-4.95700226-0.72541556-12.57385953 5.80331961-12.57385953z" fill="" p-id="9504"></path><path d="M700.66834273 333.00385701c21.8833515-14.508299 56.34056253-33.97360147 81.60918338-41.59045875-0.24180478-0.120903-0.48360957-0.24180478-0.72541434-0.48360956-21.8833515-12.45295653-76.77308413 20.06981381-109.90036825 41.95316532h29.01659921z" fill="#FEE6A5" p-id="9505"></path><path d="M249.70203773 421.50448333c-2.7807568-33.00638113-22.12515628-117.03361475 11.60664041-132.50913409-7.61685728-1.08812212-15.35461634-1.3299269-20.3116198 1.4508299-25.75223163 14.75010378-20.31161859 97.81011828-17.53086181 131.17920597-46.30565501 55.01063441-102.40441276 188.24518405-89.46784544 283.99995988l29.86291656 0.36270778c-11.96934698-95.63387282 39.77692107-229.95654459 85.84077008-284.48356944z" fill="#F1E8E3" p-id="9506"></path><path d="M302.84658 672.737815c1.295068 28.790349-26.698317 39.648993-63.757174 39.648993s-72.125304-7.770406-70.332134-39.648993c1.69355-30.68314 36.261893-55.588287 67.044654-55.588287 34.369102 0 65.649966 24.905146 67.044654 55.588287z" fill="#FFFFFF" p-id="9507"></path><path d="M180.78761689 763.05402963c-40.50233541 0-67.22178738-7.37505249-81.6091846-22.60876583-8.46317462-8.94678418-12.33205475-20.31161859-11.6066392-33.85269848 1.08812212-19.82800903 11.96934698-38.68879773 30.46742911-53.43890272 17.16815402-13.66198166 38.68879773-21.52064372 58.75861155-21.52064372 46.54745979 0 87.41250299 34.33630803 89.22604066 74.95954644 0.60451257 13.78288466-3.50617236 25.38952385-12.33205355 34.57811281-13.78288466 14.62920199-38.32609117 21.8833515-72.90420397 21.8833515z m-3.98978314-115.46188185c-39.41421329 0-71.81608187 32.28096558-73.38781355 59.96763667-0.48360957 9.06768718 1.93443946 16.32183668 7.2541495 22.12515628 11.12302964 11.7275422 34.69901582 17.65176479 70.12344719 17.65176478 29.62111056 0 50.89995071-5.80331961 61.53936955-16.92634923 5.68241781-5.9242226 8.34227163-13.42017687 7.85866206-22.85057183-1.4508299-32.52277157-35.06172359-59.96763667-73.38781475-59.96763667z" fill="#6B3437" p-id="9508"></path><path d="M249.21842817 705.98805277c-0.72541556-8.58407762-3.86888014-17.77266657-9.91400452-26.11493942 0.60451257 2.9016598 0.96722034 5.80331961 1.20902512 8.7049794 1.3299269 31.07194166-20.19071681 40.62323841-60.20944266 40.62323842s-69.39803163-7.97956506-67.46359217-42.43677488c0.120903-2.41805024 1.5717329-3.98978192 2.05534247-6.28693038-4.59429447 6.77053994-8.8258824 13.78288466-9.91400453 22.97147362-4.47339269 36.75435827 33.85269847 45.45933767 75.44315723 45.45933888 34.69901582 0.120903 71.45337409-11.12302964 68.79351906-42.92038564z" fill="#F1E8E3" p-id="9509"></path><path d="M795.81860598 425.49426525s28.89569621 42.67858087 38.93060252 86.44528386c0 0-3.86888014 7.97956506-12.9365661 16.32183667 0 0-1.81353767-45.0966299-25.99403642-102.76712053z" fill="#E0930A" p-id="9510"></path><path d="M834.7492085 511.93954911s-7.01234471 10.39761408-12.9365661 16.32183667c-5.9242226 5.9242226 0 0 0 0s18.61898391 99.62365596 15.23371456 170.59341927l29.37930577 3.14346458c-0.120903 0-6.77053994-129.72837607-31.67645423-190.05872052" fill="#F1E8E3" p-id="9511"></path><path d="M793.677206 672.737815c1.295068 28.790349-26.698317 39.648993-63.757175 39.648993s-72.125304-7.770406-70.332133-39.648993c1.69355-30.68314 36.261893-55.588287 67.044654-55.588287 34.369102 0 65.649966 24.905146 67.044654 55.588287z" fill="#FFFFFF" p-id="9512"></path><path d="M776.47420652 763.05402963c-40.50233541 0-67.22178738-7.37505249-81.60918339-22.60876583-8.46317462-8.94678418-12.33205475-20.31161859-11.6066392-33.85269848 1.08812212-19.82800903 11.96934698-38.68879773 30.4674279-53.43890272 17.16815402-13.66198166 38.68879773-21.52064372 58.75861276-21.52064372 46.54745979 0 87.41250299 34.33630803 89.22604066 74.95954644 0.60451257 13.78288466-3.50617236 25.38952385-12.33205475 34.57811281-13.78288466 14.62920199-38.32609117 21.8833515-72.90420398 21.8833515z m-3.98978193-115.46188185c-39.41421329 0-71.81608187 32.28096558-73.38781477 59.96763667-0.48360957 9.06768718 1.93443946 16.32183668 7.25414951 22.12515628 11.12302964 11.7275422 34.69901582 17.65176479 70.12344719 17.65176478 29.62111056 0 50.89995071-5.80331961 61.53936955-16.92634923 5.68241781-5.9242226 8.34227163-13.42017687 7.85866206-22.85057183-1.4508299-32.52277157-35.06172359-59.96763667-73.38781354-59.96763667z" fill="#6B3437" p-id="9513"></path><path d="M845.1468238 705.74624799c-0.72541556-8.58407762-4.2315867-17.89356957-10.2767123-26.35674419 0.60451257 2.9016598 0.96722034 5.80331961 1.20902512 8.70497939 1.3299269 31.07194166-19.94891203 40.98594619-59.96763789 40.98594619s-69.51893462-7.97956506-67.58449394-42.43677609c0.120903-2.41805024 1.3299269-3.62707536 1.81353767-5.9242226-4.59429447 6.77053994-8.58407762 12.33205475-9.67219973 21.52064494-4.47339269 36.87526127 32.0391608 46.42655801 75.564059 46.54745978 42.07406831 0.36270778 71.45337409-11.24393142 68.91442207-43.04128742z" fill="#F1E8E3" p-id="9514"></path><path d="M194.32869554 577.71050538c-3.74797714 3.62707536-7.49595428 5.31971004-16.44273845 5.31971003s-12.81566432-2.41805024-16.08003191-5.68241659c-4.2315867-3.98978192 4.11068492-7.97956506 16.08003191-7.73776028 14.508299 0.120903 20.67432638 4.11068492 16.44273845 8.10046684zM190.5807184 613.61854631c-3.74797714 5.56151482-7.49595428 8.10046684-16.44273967 8.10046684s-12.81566432-3.74797714-16.0800319-8.7049794c-4.2315867-6.28692916 4.11068492-12.21115175 16.0800319-11.96934698 14.508299 0.120903 20.67432638 6.28692916 16.44273967 12.57385954zM850.82924039 605.03446991c-3.74797714 5.56151482-7.49595428 8.10046684-16.44273845 8.10046684s-12.81566432-3.74797714-16.0800319-8.70497941c-4.2315867-6.28692916 4.11068492-12.21115175 16.0800319-11.96934697 14.62920199 0.120903 20.67432638 6.28692916 16.44273845 12.57385954z" fill="#F97700" p-id="9515"></path></svg>