<?xml version="1.0" standalone="no"?><!DOCTYPE svg PUBLIC "-//W3C//DTD SVG 1.1//EN" "http://www.w3.org/Graphics/SVG/1.1/DTD/svg11.dtd"><svg t="1724038067870" class="icon" viewBox="0 0 1024 1024" version="1.1" xmlns="http://www.w3.org/2000/svg" p-id="6671" xmlns:xlink="http://www.w3.org/1999/xlink" width="200" height="200"><path d="M527.519973 939.829995c-60.660568 0-119.523187-11.886725-174.952614-35.331693-53.523007-22.638603-101.585653-55.04057-142.851498-96.306416s-73.668837-89.328491-96.30744-142.851499c-23.443945-55.429427-35.331693-114.293069-35.331693-174.953637s11.887748-119.523187 35.331693-174.953638c22.638603-53.523007 55.041594-101.58463 96.30744-142.851498s89.328491-73.668837 142.851498-96.306417c55.429427-23.444968 114.292046-35.331693 174.952614-35.331693s119.524211 11.887748 174.953638 35.331693c53.523007 22.638603 101.58463 55.04057 142.851499 96.306417s73.667813 89.328491 96.306416 142.851498c23.444968 55.429427 35.331693 114.292046 35.331693 174.953638 0 29.650297-2.90926 59.307757-8.646937 88.150666-3.307326 16.628726-19.47147 27.427676-36.099173 24.118303-16.628726-3.307326-27.427676-19.469424-24.119327-36.098149 4.955872-24.907273 7.468089-50.53393 7.468088-76.17082 0-213.96821-174.075641-388.044874-388.044873-388.044874S139.4751 276.41854 139.4751 490.38675c0 213.969233 174.076664 388.044874 388.045897 388.044873 104.166431 0 201.956641-40.708144 275.359418-114.626667 11.945053-12.031011 31.383778-12.100596 43.414789-0.151449 12.031011 11.946077 12.098549 31.383778 0.151449 43.414789-41.310871 41.60149-89.500407 74.275657-143.230122 97.114828-55.643298 23.653723-114.755604 35.646871-175.696558 35.646871z m12.314467-170.164564c-71.613014 0-138.940422-27.888164-189.579753-78.526471s-78.526471-117.965715-78.526471-189.579753c0-49.754171 13.634532-97.789187 39.076994-139.473565h-40.237423c-16.954137 0-30.699186-13.745049-30.699186-30.699186s13.745049-30.699186 30.699186-30.699186h111.844298c16.95516 0 30.699186 13.745049 30.699186 30.699186v111.844298c0 16.954137-13.744026 30.699186-30.699186 30.699186-16.954137 0-30.699186-13.745049-30.699186-30.699186v-27.470655c-12.167111 26.654057-18.58631 55.821353-18.586311 85.799108 0 113.978914 92.728938 206.707852 206.707852 206.707852 16.954137 0 30.699186 13.745049 30.699186 30.699186s-13.745049 30.699186-30.699186 30.699186z m254.222006-61.398372H682.212148c-16.954137 0-30.699186-13.745049-30.699186-30.699186V565.723575c0-16.954137 13.745049-30.699186 30.699186-30.699186s30.699186 13.745049 30.699186 30.699186v27.473725c12.167111-26.654057 18.587334-55.824423 18.587334-85.802178 0-113.978914-92.728938-206.707852-206.707852-206.707852-16.954137 0-30.699186-13.745049-30.699186-30.699186s13.745049-30.699186 30.699186-30.699186c71.613014 0 138.940422 27.888164 189.579753 78.526471s78.526471 117.965715 78.526471 189.579753c0 49.753147-13.634532 97.788164-39.078017 139.473565h40.236399c16.954137 0 30.699186 13.745049 30.699186 30.699186s-13.743002 30.699186-30.698162 30.699186z" fill="#126dff" p-id="6672"></path></svg>